<?xml version="1.0" encoding="utf-8"?>
<!-- Generator: Adobe Illustrator 24.0.3, SVG Export Plug-In . SVG Version: 6.00 Build 0)  -->
<svg version="1.1" id="Capa_1" xmlns="http://www.w3.org/2000/svg" xmlns:xlink="http://www.w3.org/1999/xlink" x="0px" y="0px"
	 viewBox="0 0 230.87 417.62" style="enable-background:new 0 0 230.87 417.62;" xml:space="preserve">
<style type="text/css">
	.st0{fill:#FFFFFF;}
</style>
<g>
	<polygon class="st0" points="122.71,192.22 122.71,192.22 122.71,192.22 	"/>
	<path class="st0" d="M230.82,181.41v-0.02l0-0.04c-0.23-2.47-1.42-4.77-3.43-6.17c-1.73-1.23-3.81-1.67-5.99-1.77v-0.09h-0.82
		l-0.83,0v0c-13.6,0-27.19-0.01-40.79-0.01c-6.94,0-13.87,0-20.81,0c-6.94,0-13.87,0-20.81,0c-0.11,0-0.15,0-0.26,0
		c0.01-0.07,0.02-0.11,0.03-0.18l0-0.01c0.18-1,0.25-1.8,0.36-2.23l0.02-0.1v-0.01c2.7-11.67,5.47-23.33,8.13-35.04
		c3.06-13.47,5.99-26.95,9.02-40.39c2.84-12.58,5.72-25.16,8.58-37.74c3.41-14.95,6.82-29.89,10.23-44.83
		c0.24-1.03,0.37-2.05,0.37-3.06l0-0.04c0-1.88-0.49-3.75-1.55-5.31c-1.06-1.58-2.58-2.76-4.35-3.57C166.82,0.26,165.61,0,164.4,0
		c-3.5,0.02-6.51,2.11-8.53,5.07c-10.8,15.76-21.64,31.5-32.47,47.25c-2.09,3.04-4.2,6.08-6.45,9.33l-3.38,4.91
		c-2.48,3.61-5.12,7.41-7.74,11.23c-15.5,22.62-30.97,45.27-46.49,67.86c-18.43,26.82-36.91,53.6-55.36,80.42l-0.01,0.01l0.01-0.01
		c-0.94,1.41-2.47,3.16-3.35,5.66C0.22,232.94,0,234.16,0,235.36h0l0,0.07c0,2.62,1.11,5.09,3.03,6.77c1.92,1.69,4.5,2.54,7.28,2.53
		c27.81,0.03,55.61,0.02,83.42,0.02c-2.95,11.65-5.9,23.3-8.86,34.95c-3.34,13.12-6.7,26.24-10.04,39.36
		c-3.82,15-7.64,29.99-11.47,44.98c-3.46,13.51-6.92,27.02-10.39,40.53c-0.28,1.12-0.44,2.23-0.44,3.33h0v0.05
		c0,1.86,0.48,3.68,1.48,5.23c0.99,1.57,2.46,2.78,4.16,3.6c1.17,0.58,2.44,0.85,3.7,0.85c3.27-0.01,6.36-1.77,8.41-4.64
		c8.76-12.32,17.47-24.67,26.19-36.99c11.27-15.91,22.54-31.83,33.82-47.73c10.73-15.12,21.47-30.23,32.2-45.36
		c11.28-15.91,22.54-31.83,33.8-47.74c11-15.52,22.04-31.02,32.94-46.64l0.01-0.01c1.27-1.9,1.63-4.02,1.65-5.93v-0.02
		L230.82,181.41z M84.18,359.9c1.37-5.25,2.74-10.5,4.09-15.77c2.67-10.48,5.27-20.96,7.92-31.42c3.35-13.2,6.71-26.4,10.1-39.59
		c3.04-11.85,6.16-23.71,9.18-35.6c0.2-0.79,0.29-1.58,0.29-2.35c-0.01-4.58-3.26-8.62-7.89-9.52c-1.24-0.23-2.34-0.24-3.28-0.24
		h-0.64c-25.33-0.01-50.68-0.01-76.02-0.01c38.83-56.52,77.39-112.65,115.93-168.73c-2.08,9.17-4.17,18.33-6.25,27.5
		c-2.88,12.66-5.76,25.33-8.64,37.99c-2.87,12.59-5.72,25.17-8.6,37.75c-1.6,6.98-3.26,13.97-4.86,20.98
		c-0.15,0.66-0.22,1.32-0.22,1.97c0.04,4.34,3.02,8.22,7.41,9.36l0.01,0c1.79,0.44,3.44,0.42,4.78,0.43
		c18.58,0.01,37.14,0.01,55.7,0.01c6.52,0,13.05,0,19.58,0C163.04,248.68,123.6,304.31,84.18,359.9z"/>
</g>
</svg>
